<?xml version="1.0" standalone="no"?>
<!DOCTYPE svg PUBLIC "-//W3C//DTD SVG 20010904//EN"
 "http://www.w3.org/TR/2001/REC-SVG-20010904/DTD/svg10.dtd">
<svg version="1.0" xmlns="http://www.w3.org/2000/svg"
 width="1080.000000pt" height="1080.000000pt" viewBox="0 0 1080.000000 1080.000000"
 preserveAspectRatio="xMidYMid meet">
<metadata>
Created by potrace 1.14, written by Peter Selinger 2001-2017
</metadata>
<g transform="translate(0.000000,1080.000000) scale(0.100000,-0.100000)"
fill="#000000" stroke="none">
<path d="M5339 8408 c-42 -4 -98 -9 -125 -11 -27 -2 -56 -7 -64 -10 -8 -3 -42
-8 -75 -11 -57 -5 -90 -11 -125 -19 -14 -4 -85 -15 -122 -21 -10 -1 -21 -5
-24 -9 -4 -4 -20 -7 -35 -7 -15 0 -38 -4 -52 -9 -13 -5 -39 -12 -58 -15 -29
-5 -58 -12 -129 -30 -148 -39 -336 -95 -375 -111 -16 -7 -41 -17 -55 -23 -103
-40 -300 -141 -332 -170 -10 -8 -18 -12 -18 -9 0 4 -9 -2 -20 -13 -11 -11 -26
-20 -34 -20 -8 0 -16 -4 -18 -8 -1 -4 -23 -23 -48 -42 -24 -19 -53 -43 -64
-52 -11 -10 -26 -18 -33 -18 -7 0 -13 -6 -13 -14 0 -8 -8 -17 -17 -21 -10 -3
-47 -32 -83 -65 -36 -33 -73 -63 -82 -66 -10 -3 -18 -9 -18 -14 0 -5 -38 -48
-85 -95 -47 -48 -85 -90 -85 -93 0 -4 -23 -32 -50 -62 -27 -30 -50 -58 -50
-61 0 -3 -10 -17 -22 -31 -42 -47 -58 -68 -58 -78 0 -5 -6 -13 -14 -17 -7 -4
-19 -19 -26 -32 -14 -27 -25 -42 -56 -76 -12 -13 -19 -26 -16 -29 3 -3 0 -6
-6 -6 -7 0 -12 -6 -12 -13 0 -8 -13 -32 -28 -53 -67 -92 -180 -329 -232 -485
-17 -52 -34 -101 -37 -109 -7 -16 -30 -93 -58 -195 -19 -65 -18 -62 -30 -120
-11 -48 -10 -46 -17 -65 -6 -16 -38 -195 -43 -245 -2 -16 -6 -57 -9 -90 -3
-33 -8 -78 -11 -100 -4 -22 -8 -56 -11 -75 -8 -56 -8 -388 0 -475 4 -44 9
-102 11 -128 3 -26 9 -65 14 -85 5 -20 12 -59 16 -86 3 -27 8 -53 11 -58 3 -5
7 -18 10 -31 9 -51 15 -74 34 -137 8 -25 15 -49 16 -55 0 -5 4 -17 7 -25 4 -8
19 -49 33 -90 43 -123 59 -164 72 -187 7 -13 11 -23 8 -23 -9 0 106 -215 155
-289 27 -41 49 -76 49 -79 0 -2 14 -21 30 -41 34 -40 40 -47 88 -106 52 -62
193 -205 278 -281 42 -38 92 -84 111 -101 18 -18 37 -33 42 -33 5 0 11 -3 13
-7 4 -9 101 -91 134 -113 12 -8 55 -40 95 -70 91 -69 199 -139 276 -181 95
-52 252 -129 262 -129 6 0 59 -22 118 -50 63 -29 148 -58 203 -70 52 -12 106
-26 120 -31 14 -5 34 -11 45 -13 11 -2 67 -16 125 -30 219 -55 410 -91 545
-102 39 -3 93 -9 120 -13 57 -8 394 -6 440 2 17 3 59 8 95 12 36 3 72 8 80 10
8 2 31 7 50 10 19 3 62 13 95 22 33 8 65 16 70 17 17 4 59 17 80 25 36 15 110
36 118 33 4 -1 7 3 7 8 0 6 7 10 15 10 19 0 278 125 320 154 16 12 45 29 64
39 19 10 52 31 74 45 22 15 47 32 55 37 21 14 52 38 67 53 8 6 17 12 20 12 9
0 98 72 108 87 4 7 14 13 22 13 7 0 15 3 17 8 2 4 37 36 78 72 101 88 152 135
223 203 33 31 64 57 70 57 6 0 7 3 4 6 -4 4 17 30 46 59 29 29 68 72 87 94 19
23 49 57 67 76 17 19 30 35 28 35 -3 0 20 33 50 73 50 67 172 263 174 280 0 4
12 28 25 55 45 88 90 187 88 195 -1 4 3 7 9 7 5 0 8 3 5 8 -2 4 3 23 11 42 9
19 15 39 14 44 -1 4 2 13 7 20 5 6 17 35 27 64 9 28 20 50 23 48 4 -2 8 10 8
27 1 18 7 46 14 62 16 36 14 28 29 97 7 32 16 60 19 62 4 2 9 19 10 37 1 18 7
38 12 44 5 7 7 14 4 17 -5 5 11 85 23 118 4 8 5 19 4 23 -1 5 3 25 8 45 6 20
13 62 16 92 4 30 9 62 12 70 16 45 24 545 10 615 -3 17 -9 54 -12 83 -5 46
-16 105 -40 222 -3 14 -13 48 -22 75 -15 47 -19 63 -21 75 -1 3 -12 35 -26 73
-14 37 -22 67 -18 67 4 0 1 4 -5 8 -7 4 -14 17 -16 27 -1 11 -15 45 -29 75
-15 31 -28 62 -30 70 -2 8 -6 17 -9 20 -3 3 -32 58 -65 123 l-59 118 -45 -7
c-57 -10 -159 -7 -219 6 -73 16 -203 69 -221 89 -3 4 -22 17 -42 31 -21 14
-38 28 -38 33 0 4 -4 7 -10 7 -15 0 -88 80 -133 145 -22 33 -45 63 -51 67 -6
4 -8 8 -3 8 4 0 -1 17 -12 38 -10 20 -26 62 -36 92 l-17 55 -112 1 c-314 3
-577 180 -687 464 -21 56 -25 71 -38 150 -8 47 -6 139 2 176 3 12 19 46 36 75
19 34 27 59 22 67 -5 8 -11 13 -15 13 -9 -1 -26 4 -81 23 -43 15 -101 30 -194
51 -14 4 -27 8 -31 10 -4 2 -29 7 -56 11 -27 3 -53 8 -57 11 -12 7 -125 23
-212 30 -44 3 -82 8 -85 12 -7 8 -290 8 -381 -1z"/>
</g>
</svg>
